/* XPM */
static char *_8954a4ca0c24c47a99504c893ecf862[] = {
/* columns rows colors chars-per-pixel */
"40 40 228 2 ",
"   c #010202",
".  c #0B0003",
"X  c #000B03",
"o  c #02020B",
"O  c #0B020B",
"+  c #010B0B",
"@  c #0B0C0C",
"#  c #080B00",
"$  c #130002",
"%  c #1B0003",
"&  c #140905",
"*  c #13010B",
"=  c #1B010C",
"-  c #140B0B",
";  c #1B0C08",
":  c #001303",
">  c #001B03",
",  c #00130C",
"<  c #011B0C",
"1  c #0A100E",
"2  c #10130C",
"3  c #010313",
"4  c #0E0211",
"5  c #010B13",
"6  c #0B0A11",
"7  c #00031B",
"8  c #0B051B",
"9  c #030B1B",
"0  c #140212",
"q  c #1C0312",
"w  c #120C14",
"e  c #12021D",
"r  c #130A19",
"t  c #011313",
"y  c #0B1314",
"u  c #001A14",
"i  c #01131B",
"p  c #011C1C",
"a  c #0C1719",
"s  c #14121A",
"d  c #1D141A",
"f  c #131B1D",
"g  c #161718",
"h  c #250005",
"j  c #28030C",
"k  c #240718",
"l  c #211016",
"z  c #28111D",
"x  c #002405",
"c  c #00250C",
"v  c #002802",
"b  c #002115",
"n  c #01231E",
"m  c #00281C",
"M  c #00311D",
"N  c #122A1D",
"B  c #000322",
"V  c #010B23",
"C  c #000A2A",
"Z  c #0C0C26",
"A  c #001423",
"S  c #001C24",
"D  c #00152C",
"F  c #091428",
"G  c #181823",
"H  c #001E35",
"J  c #001130",
"K  c #250A23",
"L  c #201124",
"P  c #012524",
"I  c #002B24",
"U  c #00222B",
"Y  c #002C2A",
"T  c #0B2626",
"R  c #1A2626",
"E  c #043326",
"W  c #003826",
"Q  c #052935",
"!  c #003533",
"~  c #00313A",
"^  c #043D38",
"/  c #143C3D",
"(  c #183A36",
")  c #2D282F",
"_  c #212A31",
"`  c #28373C",
"'  c #00413C",
"]  c #04473A",
"[  c #1A453C",
"{  c #005C3F",
"}  c #002E45",
"|  c #003D4A",
" . c #003740",
".. c #153B47",
"X. c #004A44",
"o. c #00454D",
"O. c #1D464B",
"+. c #164B45",
"@. c #005444",
"#. c #005B48",
"$. c #004656",
"%. c #035957",
"&. c #195351",
"*. c #124852",
"=. c #255154",
"-. c #295B58",
";. c #285049",
":. c #11654D",
">. c #036256",
",. c #05655C",
"<. c #1B635F",
"1. c #00735B",
"2. c #035968",
"3. c #00656D",
"4. c #186466",
"5. c #007267",
"6. c #00776C",
"7. c #1E7F6E",
"8. c #03647D",
"9. c #006375",
"0. c #037374",
"q. c #077F7E",
"w. c #266061",
"e. c #316F64",
"r. c #347E6F",
"t. c #397B73",
"y. c #287065",
"u. c #44504E",
"i. c #4A5956",
"p. c #486365",
"a. c #526B72",
"s. c #457674",
"d. c #517877",
"f. c #407968",
"g. c #068A78",
"h. c #198675",
"j. c #2E8775",
"k. c #44867B",
"l. c #44957B",
"z. c #439A77",
"x. c #0E7180",
"c. c #067684",
"v. c #2F7992",
"b. c #236B83",
"n. c #5C7D82",
"m. c #07818E",
"M. c #1E8782",
"N. c #1A9685",
"B. c #089B92",
"V. c #228886",
"C. c #378985",
"Z. c #279886",
"A. c #249997",
"S. c #08A68A",
"D. c #00B39D",
"F. c #17A88F",
"G. c #35A08E",
"H. c #25A79C",
"J. c #02A7A8",
"K. c #17ADA5",
"L. c #00BAB2",
"P. c #15BABA",
"I. c #17B4AB",
"U. c #26AEAC",
"Y. c #2EB2A4",
"T. c #2AAEB2",
"R. c #23B4B5",
"E. c #38AAA2",
"W. c #419281",
"Q. c #469E9F",
"!. c #55978B",
"~. c #619899",
"^. c #719A9C",
"/. c #44A48C",
"(. c #52A68F",
"). c #42AB98",
"_. c #53B69B",
"`. c #65AB9B",
"'. c #46AEAD",
"]. c #44B7AE",
"[. c #53B5B9",
"{. c #7AA0A3",
"}. c #6AB3A6",
"|. c #79B3AC",
" X c #6DB3AE",
".X c #00C19C",
"XX c #02C4A9",
"oX c #00D1AC",
"OX c #08CAB5",
"+X c #19C7BB",
"@X c #1ACCAA",
"#X c #28C8AD",
"$X c #39CBBB",
"%X c #25D4BE",
"&X c #3CDBBB",
"*X c #45C69F",
"=X c #5FC7B0",
"-X c #53D8BD",
";X c #6AC6B4",
":X c #73C3B6",
">X c #0FA6C3",
",X c #02B3C7",
"<X c #13B5C4",
"1X c #25BCC7",
"2X c #06C6CD",
"3X c #16CFC1",
"4X c #0BDCCD",
"5X c #09DEC2",
"6X c #16D7C8",
"7X c #03CEDF",
"8X c #1CD9D3",
"9X c #28CAC8",
"0X c #26CBD1",
"qX c #2CF3DE",
"wX c #30E7CD",
"eX c #12D0E6",
"rX c #2CDEE8",
"tX c #1DFEE0",
"yX c #0AE6FF",
"uX c #0EF8FF",
"iX c #30E2EC",
"pX c #15ECCD",
"aX c #42E7E3",
"sX c #899D9C",
"dX c #81AAAE",
"fX c #82A9B0",
"gX c #9DBBBD",
"hX c #83C3C2",
/* pixels */
"h k 5 p ,.Q 5 p.( t X X m / ..S t p :X< : [ . $ . . # : X   . .                 ",
"  o b |.U S b +.g . X X   r i 5 5 =.o G O O d     X X X X , : X X               ",
"c : k.5 3 3 Y `.  . X   $ % . o u ,.u =.i o . o f + X X 5 o O K           @     ",
"v l.p o 3 9 5 ^.X   & & . . O o d.C.G.] , o O k o P ,.N.Z.*.e q .         X X . ",
"l.u G 4 8 D P ~.+   . #   X X o o r a + o o L 3 i h.#XD.XX%Xq.i + + @         X ",
"u o 3 F B V g.N.9 *   X X   X X   o . = z 3 , < G.Z.6.^ %.U.+X5.u + o +     1 N ",
"o 3 i i S ,.L.$XZ q o X X   .   : X   . o : > h.).X.9 B J b.R.B.! + X + X X R u.",
"4 9 U v.wXOXqX0.9 0 = O X X $ % % % j %   X W W.y.S 7 C Z q.0XK.<.T X + +   R i.",
"].V.] m ^ w.O.5 o o o . . o .     . . o , > #.-X,.P 7 B } A.pXoXZ.: o O u : j._.",
"p i t 5 + 9 5 o o o   o           5   O 9 5 ] E.H.3.o.2.c.P.4X+Xu u -   o + m : ",
"o o O 0 . O $ * . .     X     X   3 O 4 e 7 D 2.U.P.XXL.2XrX<X8.5 o . O g 6 o   ",
"= = * = % $ . . . . .       X     O o O O 3 7 U 3.I.6X4X8X<Xx.C V O w o .   . * ",
"1                   .         . $ $   X X X   + u ] g.H.A.$.9 7 o   R o   o 2 g ",
"X X X X X     X           . . . $ $   X X X X     X I [ Y + o q G o   a : b : : ",
"  X + X                   o           X     . . . @ a : X   q . . o . o m (.j.G.",
". . . .   @ O     o o   o   o o   o + q % = % = w   X ,     - . O O q 0 W c v *X",
"3 9 5 4 5 +   ,           . . .     X @ h %     $ $ X X . O   o o   , P @ . = % ",
"5 U fXd.+ + X                 o   @ 2 .   - l .     5   o   6 w o a d.X   ) w . ",
"hXt ! -.t     y           X     #       = ; X a   o < , + o   o X T P + n o o o ",
", ! s.S   R o o O . . .     X       X f * . ( : o _ !.}.p.o , + i {.S ^ p I + gX",
"u ` , o + 4 o l * * = * . .         @   o o o Q -.Y t O.( p u   + O./ p , : |.p ",
"  f o 5 + o 4 o o o o O . . . . .   +   o + + ~.u i p s.b + X o + + p + u j.< < ",
". .   +   + S u p t o   o o   . . 2 X N O o }.I 7 9 u j.o . o y + o o X m E m :.",
"$ . @   + n ^ k.t.&.P , X +         X   ` a.9 i t S t dXp o . .   o @ X f.`.l.x ",
"o     X x F.0X,X,X0X4.t < < X X X : : : z.x : o o + M /., t i o         o o o o ",
"o f o p j.F.8.$.2.T.Y.@.o   o + N X . d @ o O 3 + Y h.}.+ o O             o o o ",
". 6 5 o.[.%.7 7 5 h.%XB.~ 8 o O . o T d.o 8 q K t @.S.S.u o 0 = .         o   o ",
"h o X.R.v.B r o < 1.OX6Xx.H o   i 5 %.4.9 A ..C.#XwX&Xh.P o + X                 ",
"j + >.aXx.C F 5 ] g.5X6Xc.Q o . 0 9 N.@X$XM.~ S ' %.@.< + + t o                 ",
"  + E E.K.9.o.| 0.9XtXD. .3     k r , u u i + S + p k h h % .                   ",
"X < t -.#X3XJ.>X,XiX+X#.+ o   . h h : c : o . % % q % @     $ % .               ",
"o   . X 1.J.7XyXuXeX2.3 : #   . . #     h % l   1     X > x   &                 ",
". . . i 5 ~ V.A.'.S 5 o * $ $ . @ o * = .     <   .     X o $ % .       o o o o ",
"X X   o o 5 O.O.5 9 o - -   : : , , I + t - . . . .                       o o o ",
"+ 5 o w - o y   o d $ $ .   X m m ;X#._.: o z % .   . . $ . X X         o     o ",
"O * * $ @   X : :   ; $ % * o o n u < }.b + .         . . .   X                 ",
"O q $ . .   : : : X & $ = O R 5 r O o s + + , P   o   o     . .                 ",
"X + o - . .   .   O . . o   e.p . k j 0 + m ;Xt.+ o o o X   . . .               ",
"X X   @ o o S i 5 3 3 9 X [ E : + O 5 + |.Y , &.3 o O   o                       ",
"; . . # o ! '.'.M.A i 3 5 sXX ;., : x =X< u ^.3 3 o 3 * % . X X   o             "
};
